{
  "asset": {
    "version": "2.0",
    "generator": "gltfeditor.com"
  },
  "buffers": [
    {
      "uri": "OSG_Scene.bin",
      "byteLength": 384896
    }
  ],
  "bufferViews": [
    {
      "buffer": 0,
      "byteLength": 181344,
      "byteOffset": 171712,
      "target": 34962,
      "byteStride": 12
    },
    {
      "buffer": 0,
      "byteLength": 31840,
      "byteOffset": 353056,
      "target": 34962,
      "byteStride": 16
    },
    {
      "buffer": 0,
      "byteLength": 60448,
      "byteOffset": 111264,
      "target": 34962,
      "byteStride": 8
    },
    {
      "buffer": 0,
      "byteLength": 111264,
      "byteOffset": 0,
      "target": 34963
    }
  ],
  "accessors": [
    {
      "bufferView": 0,
      "byteOffset": 11172,
      "componentType": 5126,
      "count": 931,
      "max": [
        0.9997994899749756,
        0.7977416515350342,
        0.9831103086471558
      ],
      "min": [
        -0.9201175570487976,
        -0.781226396560669,
        -0.9997657537460327
      ],
      "type": "VEC3"
    },
    {
      "bufferView": 0,
      "byteOffset": 0,
      "componentType": 5126,
      "count": 931,
      "max": [
        0.9560731649398804,
        1.2514684200286865,
        0.07697344571352005
      ],
      "min": [
        -2.4454426765441895,
        -1.219807744026184,
        -1.3318030834197998
      ],
      "type": "VEC3"
    },
    {
      "bufferView": 1,
      "byteOffset": 0,
      "componentType": 5126,
      "count": 931,
      "max": [
        0.6817015409469604,
        -0.5780131220817566,
        0.8053053021430969,
        1
      ],
      "min": [
        -0.6793174743652344,
        -0.999987006187439,
        -0.7446675896644592,
        1
      ],
      "type": "VEC4"
    },
    {
      "bufferView": 2,
      "byteOffset": 0,
      "componentType": 5126,
      "count": 931,
      "max": [
        0.7758662700653076,
        0.8708257675170898
      ],
      "min": [
        0.20551961660385132,
        0.11566399037837982
      ],
      "type": "VEC2"
    },
    {
      "bufferView": 3,
      "byteOffset": 0,
      "componentType": 5125,
      "normalized": false,
      "count": 5184,
      "max": [
        930
      ],
      "min": [
        0
      ],
      "type": "SCALAR"
    },
    {
      "bufferView": 0,
      "byteOffset": 25128,
      "componentType": 5126,
      "count": 232,
      "max": [
        0.7924391031265259,
        0.6373053789138794,
        0.9916937351226807
      ],
      "min": [
        -0.856163501739502,
        -0.990001380443573,
        -0.8915210962295532
      ],
      "type": "VEC3"
    },
    {
      "bufferView": 0,
      "byteOffset": 22344,
      "componentType": 5126,
      "count": 232,
      "max": [
        0.38729971647262573,
        -1.0196706056594849,
        0.08866365998983383
      ],
      "min": [
        -1.7869125604629517,
        -1.2982252836227417,
        -0.6190135478973389
      ],
      "type": "VEC3"
    },
    {
      "bufferView": 1,
      "byteOffset": 14896,
      "componentType": 5126,
      "count": 232,
      "max": [
        0.3470127284526825,
        0.9937551021575928,
        0.989459753036499,
        1
      ],
      "min": [
        -0.8158624172210693,
        -0.9587958455085754,
        -0.6623365879058838,
        1
      ],
      "type": "VEC4"
    },
    {
      "bufferView": 2,
      "byteOffset": 7448,
      "componentType": 5126,
      "count": 232,
      "max": [
        0.1685810685157776,
        0.8698707818984985
      ],
      "min": [
        0.035212770104408264,
        0.11887520551681519
      ],
      "type": "VEC2"
    },
    {
      "bufferView": 3,
      "byteOffset": 20736,
      "componentType": 5125,
      "normalized": false,
      "count": 1176,
      "max": [
        231
      ],
      "min": [
        0
      ],
      "type": "SCALAR"
    },
    {
      "bufferView": 0,
      "byteOffset": 30504,
      "componentType": 5126,
      "count": 216,
      "max": [
        0.8074207901954651,
        0.999961256980896,
        0.9939574003219604
      ],
      "min": [
        -0.9012775421142578,
        -0.9564635753631592,
        -0.9351416230201721
      ],
      "type": "VEC3"
    },
    {
      "bufferView": 0,
      "byteOffset": 27912,
      "componentType": 5126,
      "count": 216,
      "max": [
        0.41620081663131714,
        1.2862242460250854,
        0.052576612681150436
      ],
      "min": [
        -1.7825464010238647,
        1.0406447649002075,
        -0.6618468761444092
      ],
      "type": "VEC3"
    },
    {
      "bufferView": 1,
      "byteOffset": 18608,
      "componentType": 5126,
      "count": 216,
      "max": [
        0.9534293413162231,
        0.9521000981330872,
        0.9996433854103088,
        1
      ],
      "min": [
        -0.9473181366920471,
        -0.9994296431541443,
        -0.47719690203666687,
        1
      ],
      "type": "VEC4"
    },
    {
      "bufferView": 2,
      "byteOffset": 9304,
      "componentType": 5126,
      "count": 216,
      "max": [
        0.16843941807746887,
        0.8717528581619263
      ],
      "min": [
        0.034557588398456573,
        0.11945921182632446
      ],
      "type": "VEC2"
    },
    {
      "bufferView": 3,
      "byteOffset": 25440,
      "componentType": 5125,
      "normalized": false,
      "count": 1092,
      "max": [
        215
      ],
      "min": [
        0
      ],
      "type": "SCALAR"
    },
    {
      "bufferView": 0,
      "byteOffset": 35148,
      "componentType": 5126,
      "count": 171,
      "max": [
        -0.268688440322876,
        0.7708665728569031,
        0.722128689289093
      ],
      "min": [
        -0.9916431307792664,
        -0.7522081732749939,
        -0.7869357466697693
      ],
      "type": "VEC3"
    },
    {
      "bufferView": 0,
      "byteOffset": 33096,
      "componentType": 5126,
      "count": 171,
      "max": [
        -1.59493887424469,
        1.2918798923492432,
        0.33010366559028625
      ],
      "min": [
        -2.591484546661377,
        -1.2971186637878418,
        -0.37455034255981445
      ],
      "type": "VEC3"
    },
    {
      "bufferView": 1,
      "byteOffset": 22064,
      "componentType": 5126,
      "count": 171,
      "max": [
        0.8626338839530945,
        0.8618922233581543,
        0.9915804862976074,
        1
      ],
      "min": [
        -0.793724536895752,
        -0.8067327737808228,
        -0.8762239813804626,
        -1
      ],
      "type": "VEC4"
    },
    {
      "bufferView": 2,
      "byteOffset": 11032,
      "componentType": 5126,
      "count": 171,
      "max": [
        0.9726405143737793,
        0.8806143999099731
      ],
      "min": [
        0.8045703172683716,
        0.10603788495063782
      ],
      "type": "VEC2"
    },
    {
      "bufferView": 3,
      "byteOffset": 29808,
      "componentType": 5125,
      "normalized": false,
      "count": 756,
      "max": [
        170
      ],
      "min": [
        0
      ],
      "type": "SCALAR"
    },
    {
      "bufferView": 0,
      "byteOffset": 39480,
      "componentType": 5126,
      "count": 190,
      "max": [
        0.9937999248504639,
        0.6799019575119019,
        0.9754248261451721
      ],
      "min": [
        0.0917094275355339,
        -0.6968197226524353,
        -0.9845715761184692
      ],
      "type": "VEC3"
    },
    {
      "bufferView": 0,
      "byteOffset": 37200,
      "componentType": 5126,
      "count": 190,
      "max": [
        1.0597681999206543,
        1.3121753931045532,
        0.15542340278625488
      ],
      "min": [
        0.1922079473733902,
        -1.3252842426300049,
        -0.47958672046661377
      ],
      "type": "VEC3"
    },
    {
      "bufferView": 1,
      "byteOffset": 24800,
      "componentType": 5126,
      "count": 190,
      "max": [
        0.9895643591880798,
        0.9361793398857117,
        0.994030237197876,
        1
      ],
      "min": [
        -0.9848038554191589,
        -0.8948363661766052,
        -0.9184170365333557,
        -1
      ],
      "type": "VEC4"
    },
    {
      "bufferView": 2,
      "byteOffset": 12400,
      "componentType": 5126,
      "count": 190,
      "max": [
        0.9726405143737793,
        0.8806143999099731
      ],
      "min": [
        0.8045703172683716,
        0.10603788495063782
      ],
      "type": "VEC2"
    },
    {
      "bufferView": 3,
      "byteOffset": 32832,
      "componentType": 5125,
      "normalized": false,
      "count": 756,
      "max": [
        189
      ],
      "min": [
        0
      ],
      "type": "SCALAR"
    },
    {
      "bufferView": 0,
      "byteOffset": 43260,
      "componentType": 5126,
      "count": 125,
      "max": [
        0.8994305729866028,
        0.9891915917396545,
        0.964681088924408
      ],
      "min": [
        -0.8704140782356262,
        -0.9666257500648499,
        -0.9809972643852234
      ],
      "type": "VEC3"
    },
    {
      "bufferView": 0,
      "byteOffset": 41760,
      "componentType": 5126,
      "count": 125,
      "max": [
        1.3554226160049438,
        0.04989495873451233,
        1.599529504776001
      ],
      "min": [
        -1.2431081533432007,
        -0.7586137652397156,
        -0.5421952605247498
      ],
      "type": "VEC3"
    },
    {
      "bufferView": 1,
      "byteOffset": 27840,
      "componentType": 5126,
      "count": 125,
      "max": [
        0.8300239443778992,
        0.30639100074768066,
        0.9469087719917297,
        1
      ],
      "min": [
        -0.9946298599243164,
        -0.34346914291381836,
        -0.9696556329727173,
        1
      ],
      "type": "VEC4"
    },
    {
      "bufferView": 2,
      "byteOffset": 13920,
      "componentType": 5126,
      "count": 125,
      "max": [
        0.9836502075195312,
        0.06927426159381866
      ],
      "min": [
        0.025599271059036255,
        0.031948521733284
      ],
      "type": "VEC2"
    },
    {
      "bufferView": 3,
      "byteOffset": 35856,
      "componentType": 5125,
      "normalized": false,
      "count": 576,
      "max": [
        124
      ],
      "min": [
        0
      ],
      "type": "SCALAR"
    },
    {
      "bufferView": 0,
      "byteOffset": 46260,
      "componentType": 5126,
      "count": 125,
      "max": [
        0.8702182173728943,
        0.9891915917396545,
        0.964681088924408
      ],
      "min": [
        -0.8737690448760986,
        -0.9666257500648499,
        -0.9809972643852234
      ],
      "type": "VEC3"
    },
    {
      "bufferView": 0,
      "byteOffset": 44760,
      "componentType": 5126,
      "count": 125,
      "max": [
        1.3740170001983643,
        0.009700007736682892,
        1.5942645072937012
      ],
      "min": [
        -1.2431081533432007,
        -0.7586137652397156,
        -0.5421952605247498
      ],
      "type": "VEC3"
    },
    {
      "bufferView": 1,
      "byteOffset": 29840,
      "componentType": 5126,
      "count": 125,
      "max": [
        0.909437894821167,
        0.3063911497592926,
        0.9654363989830017,
        1
      ],
      "min": [
        -0.9946299195289612,
        -0.34346911311149597,
        -0.9870908856391907,
        1
      ],
      "type": "VEC4"
    },
    {
      "bufferView": 2,
      "byteOffset": 14920,
      "componentType": 5126,
      "count": 125,
      "max": [
        0.9836502075195312,
        0.06927426159381866
      ],
      "min": [
        0.025599271059036255,
        0.031948521733284
      ],
      "type": "VEC2"
    },
    {
      "bufferView": 3,
      "byteOffset": 38160,
      "componentType": 5125,
      "normalized": false,
      "count": 576,
      "max": [
        124
      ],
      "min": [
        0
      ],
      "type": "SCALAR"
    }
  ],
  "scene": 0,
  "scenes": [
    {
      "nodes": [
        17
      ],
      "name": "OSG_Scene"
    }
  ],
  "nodes": [
    {
      "mesh": 0
    },
    {
      "children": [
        0
      ],
      "matrix": [
        2.028159258316009e-7,
        0.9999999403953552,
        1.6292067073209182e-7,
        0,
        1.415878176689148,
        -1.9023576669496833e-7,
        -2.3067586596425826e-7,
        0,
        -1.6292067073209182e-7,
        1.6292069915380125e-7,
        -0.9999999403953552,
        0,
        0,
        3.7441225051879883,
        0.28974640369415283,
        1
      ]
    },
    {
      "mesh": 1
    },
    {
      "children": [
        2
      ],
      "matrix": [
        2.028159258316009e-7,
        0.9999999403953552,
        1.6292067073209182e-7,
        0,
        1.415878176689148,
        -1.9023576669496833e-7,
        -2.3067586596425826e-7,
        0,
        -1.6292067073209182e-7,
        1.6292069915380125e-7,
        -0.9999999403953552,
        0,
        0,
        3.7441225051879883,
        0.2562384605407715,
        1
      ]
    },
    {
      "mesh": 2
    },
    {
      "children": [
        4
      ],
      "matrix": [
        2.028159258316009e-7,
        0.9999999403953552,
        1.6292067073209182e-7,
        0,
        1.415878176689148,
        -1.9023576669496833e-7,
        -2.3067586596425826e-7,
        0,
        -1.6292067073209182e-7,
        1.6292069915380125e-7,
        -0.9999999403953552,
        0,
        0,
        3.7441225051879883,
        0.25217604637145996,
        1
      ]
    },
    {
      "mesh": 3
    },
    {
      "children": [
        6
      ],
      "matrix": [
        2.028159258316009e-7,
        0.9999999403953552,
        1.6292067073209182e-7,
        0,
        1.415878176689148,
        -1.9023576669496833e-7,
        -2.3067586596425826e-7,
        0,
        -1.6292067073209182e-7,
        1.6292069915380125e-7,
        -0.9999999403953552,
        0,
        0,
        3.7441225051879883,
        0.28974640369415283,
        1
      ]
    },
    {
      "mesh": 4
    },
    {
      "children": [
        8
      ],
      "matrix": [
        2.028159258316009e-7,
        0.9999999403953552,
        1.6292067073209182e-7,
        0,
        1.415878176689148,
        -1.9023576669496833e-7,
        -2.3067586596425826e-7,
        0,
        -1.6292067073209182e-7,
        1.6292069915380125e-7,
        -0.9999999403953552,
        0,
        0,
        3.7441225051879883,
        0.28974640369415283,
        1
      ]
    },
    {
      "mesh": 5
    },
    {
      "children": [
        10
      ],
      "matrix": [
        9.171108672489936e-8,
        -0.996744692325592,
        -0.0806228518486023,
        0,
        1,
        1.0127574512353021e-7,
        -1.1504073427204276e-7,
        0,
        1.2184227671241388e-7,
        -0.0806228518486023,
        0.996744692325592,
        0,
        -1.725411057472229,
        3.231137990951538,
        -1.2353425025939941,
        1
      ]
    },
    {
      "mesh": 6
    },
    {
      "children": [
        12
      ],
      "matrix": [
        6.717439049452878e-8,
        -0.996744692325592,
        -0.0806228518486023,
        0,
        -1,
        -7.673904889315963e-8,
        1.1504073427204276e-7,
        0,
        1.2184227671241388e-7,
        -0.0806228518486023,
        0.996744692325592,
        0,
        1.6849048137664795,
        3.231137990951538,
        -1.2353425025939941,
        1
      ]
    },
    {
      "children": [
        1,
        3,
        5,
        7,
        9,
        11,
        13
      ],
      "matrix": [
        1,
        0,
        0,
        0,
        0,
        3.422854177870249e-8,
        0.9999999403953552,
        0,
        0,
        -0.9999999403953552,
        3.422854177870249e-8,
        0,
        0,
        0,
        0,
        1
      ]
    },
    {
      "children": [
        14
      ]
    },
    {
      "children": [
        15
      ]
    },
    {
      "children": [
        16
      ],
      "matrix": [
        1,
        0,
        0,
        0,
        0,
        3.422854177870249e-8,
        -0.9999999403953552,
        0,
        0,
        0.9999999403953552,
        3.422854177870249e-8,
        0,
        0,
        0,
        0,
        1
      ]
    }
  ],
  "meshes": [
    {
      "primitives": [
        {
          "attributes": {
            "NORMAL": 0,
            "POSITION": 1,
            "TANGENT": 2,
            "TEXCOORD_0": 3
          },
          "material": 0,
          "mode": 4,
          "indices": 4
        }
      ]
    },
    {
      "primitives": [
        {
          "attributes": {
            "NORMAL": 5,
            "POSITION": 6,
            "TANGENT": 7,
            "TEXCOORD_0": 8
          },
          "material": 0,
          "mode": 4,
          "indices": 9
        }
      ]
    },
    {
      "primitives": [
        {
          "attributes": {
            "NORMAL": 10,
            "POSITION": 11,
            "TANGENT": 12,
            "TEXCOORD_0": 13
          },
          "material": 0,
          "mode": 4,
          "indices": 14
        }
      ]
    },
    {
      "primitives": [
        {
          "attributes": {
            "NORMAL": 15,
            "POSITION": 16,
            "TANGENT": 17,
            "TEXCOORD_0": 18
          },
          "material": 0,
          "mode": 4,
          "indices": 19
        }
      ]
    },
    {
      "primitives": [
        {
          "attributes": {
            "NORMAL": 20,
            "POSITION": 21,
            "TANGENT": 22,
            "TEXCOORD_0": 23
          },
          "material": 0,
          "mode": 4,
          "indices": 24
        }
      ]
    },
    {
      "primitives": [
        {
          "attributes": {
            "NORMAL": 25,
            "POSITION": 26,
            "TANGENT": 27,
            "TEXCOORD_0": 28
          },
          "material": 0,
          "mode": 4,
          "indices": 29
        }
      ]
    },
    {
      "primitives": [
        {
          "attributes": {
            "NORMAL": 30,
            "POSITION": 31,
            "TANGENT": 32,
            "TEXCOORD_0": 33
          },
          "material": 0,
          "mode": 4,
          "indices": 34
        }
      ]
    }
  ],
  "materials": [
    {
      "pbrMetallicRoughness": {
        "baseColorFactor": [
          1,
          1,
          1,
          1
        ],
        "metallicFactor": 0,
        "roughnessFactor": 0.7064273596779784,
        "baseColorTexture": {
          "index": 0,
          "texCoord": 0
        }
      },
      "emissiveFactor": [
        0.0784313725490196,
        0.0784313725490196,
        0.0784313725490196
      ],
      "alphaMode": "OPAQUE",
      "doubleSided": true,
      "normalTexture": {
        "index": 1,
        "texCoord": 0,
        "scale": 0.0685952900687701
      },
      "emissiveTexture": {
        "index": 2,
        "texCoord": 0
      }
    }
  ],
  "textures": [
    {
      "sampler": 0,
      "source": 0
    },
    {
      "sampler": 1,
      "source": 1
    },
    {
      "sampler": 2,
      "source": 0
    }
  ],
  "samplers": [
    {
      "magFilter": 9729,
      "minFilter": 9987,
      "wrapS": 10497,
      "wrapT": 10497
    },
    {
      "magFilter": 9729,
      "minFilter": 9987,
      "wrapS": 10497,
      "wrapT": 10497
    },
    {
      "magFilter": 9729,
      "minFilter": 9987,
      "wrapS": 10497,
      "wrapT": 10497
    }
  ],
  "images": [
    {
      "uri": "textures/MASK_baseColor.png",
      "mimeType": "image/png"
    },
    {
      "uri": "textures/MASK_normal.png",
      "mimeType": "image/png"
    }
  ]
}