{
  "accessors": [
    {
      "bufferView": 2,
      "componentType": 5126,
      "count": 788,
      "max": [
        3.4520292282104492,
        14.454146385192871,
        1.5954986810684204
      ],
      "min": [
        -3.4520292282104492,
        4.4823950585555467e-33,
        -1.5954986810684204
      ],
      "type": "VEC3"
    },
    {
      "bufferView": 2,
      "byteOffset": 9456,
      "componentType": 5126,
      "count": 788,
      "max": [
        0.99998128414154053,
        0.9993860125541687,
        0.99999827146530151
      ],
      "min": [
        -0.99999117851257324,
        -1,
        -0.99999827146530151
      ],
      "type": "VEC3"
    },
    {
      "bufferView": 3,
      "componentType": 5126,
      "count": 788,
      "max": [
        0.87699288129806519,
        0.68237316608428955,
        0.8425639271736145,
        1
      ],
      "min": [
        -0.95734137296676636,
        -0.99999821186065674,
        -0.66606545448303223,
        1
      ],
      "type": "VEC4"
    },
    {
      "bufferView": 1,
      "componentType": 5126,
      "count": 788,
      "max": [
        0.99950051307678223,
        0.9416649341583252
      ],
      "min": [
        0.00049948692321777344,
        0.00047057867050170898
      ],
      "type": "VEC2"
    },
    {
      "bufferView": 0,
      "componentType": 5125,
      "count": 3936,
      "max": [
        787
      ],
      "min": [
        0
      ],
      "type": "SCALAR"
    },
    {
      "bufferView": 2,
      "byteOffset": 18912,
      "componentType": 5126,
      "count": 42,
      "max": [
        0.91250556707382202,
        14.476474761962891,
        0.94409370422363281
      ],
      "min": [
        -0.9756811261177063,
        14.09154224395752,
        -0.94409382343292236
      ],
      "type": "VEC3"
    },
    {
      "bufferView": 2,
      "byteOffset": 19416,
      "componentType": 5126,
      "count": 42,
      "max": [
        1,
        0,
        1
      ],
      "min": [
        -1,
        0,
        -1
      ],
      "type": "VEC3"
    },
    {
      "bufferView": 3,
      "byteOffset": 12608,
      "componentType": 5126,
      "count": 42,
      "max": [
        0,
        1,
        2.8081464620299812e-07,
        1
      ],
      "min": [
        -2.0402409006692324e-07,
        1,
        0,
        1
      ],
      "type": "VEC4"
    },
    {
      "bufferView": 0,
      "byteOffset": 15744,
      "componentType": 5125,
      "count": 120,
      "max": [
        41
      ],
      "min": [
        0
      ],
      "type": "SCALAR"
    },
    {
      "bufferView": 2,
      "byteOffset": 19920,
      "componentType": 5126,
      "count": 2235,
      "max": [
        2.3700971603393555,
        18.117853164672852,
        1.0570656061172485
      ],
      "min": [
        -1.0886529684066772,
        14.476474761962891,
        -1.0570658445358276
      ],
      "type": "VEC3"
    },
    {
      "bufferView": 2,
      "byteOffset": 46740,
      "componentType": 5126,
      "count": 2235,
      "max": [
        1,
        1,
        1
      ],
      "min": [
        -1,
        -1,
        -1
      ],
      "type": "VEC3"
    },
    {
      "bufferView": 3,
      "byteOffset": 13280,
      "componentType": 5126,
      "count": 2235,
      "max": [
        0.99998313188552856,
        1,
        0.99840432405471802,
        1
      ],
      "min": [
        -0.99946421384811401,
        -0.97600853443145752,
        -1,
        1
      ],
      "type": "VEC4"
    },
    {
      "bufferView": 1,
      "byteOffset": 6304,
      "componentType": 5126,
      "count": 2235,
      "max": [
        0.99950045347213745,
        0.99950051307678223
      ],
      "min": [
        0.00018292665481567383,
        0.00048577785491943359
      ],
      "type": "VEC2"
    },
    {
      "bufferView": 0,
      "byteOffset": 16224,
      "componentType": 5125,
      "count": 9936,
      "max": [
        2234
      ],
      "min": [
        0
      ],
      "type": "SCALAR"
    }
  ],
  "asset": {
    "extras": {
      "author": "elouisetrewartha (https://sketchfab.com/etrewarthasae)",
      "license": "CC-BY-NC-4.0 (http://creativecommons.org/licenses/by-nc/4.0/)",
      "source": "https://sketchfab.com/models/ec67d7141333464ca1061320452f06a2",
      "title": "Sanitizer Bottle"
    },
    "generator": "Sketchfab-3.22.5",
    "version": "2.0"
  },
  "bufferViews": [
    {
      "buffer": 0,
      "byteLength": 55968,
      "byteOffset": 0,
      "name": "floatBufferViews",
      "target": 34963
    },
    {
      "buffer": 0,
      "byteLength": 24184,
      "byteOffset": 55968,
      "byteStride": 8,
      "name": "floatBufferViews",
      "target": 34962
    },
    {
      "buffer": 0,
      "byteLength": 73560,
      "byteOffset": 80152,
      "byteStride": 12,
      "name": "floatBufferViews",
      "target": 34962
    },
    {
      "buffer": 0,
      "byteLength": 49040,
      "byteOffset": 153712,
      "byteStride": 16,
      "name": "floatBufferViews",
      "target": 34962
    }
  ],
  "buffers": [
    {
      "byteLength": 202752,
      "uri": "scene.bin"
    }
  ],
  "images": [
    {
      "uri": "textures/sanitizerbottlev2_bottlelabel_blinn_baseColor.png"
    },
    {
      "uri": "textures/sanitizerbottlev2__white_blinn_baseColor.png"
    }
  ],
  "materials": [
    {
      "doubleSided": true,
      "emissiveFactor": [
        0,
        0,
        0
      ],
      "name": "sanitizerbottlev2_bottlelabel_blinn",
      "pbrMetallicRoughness": {
        "baseColorFactor": [
          1,
          1,
          1,
          1
        ],
        "baseColorTexture": {
          "index": 0,
          "texCoord": 0
        },
        "metallicFactor": 0,
        "roughnessFactor": 0.15000000000000002
      }
    },
    {
      "doubleSided": true,
      "emissiveFactor": [
        0,
        0,
        0
      ],
      "name": "sanitizerbottlev2_green_blinn",
      "pbrMetallicRoughness": {
        "baseColorFactor": [
          0.049475999999999999,
          0.26600000000000001,
          0.12442599999999999,
          1
        ],
        "metallicFactor": 0,
        "roughnessFactor": 0.15000000000000002
      }
    },
    {
      "doubleSided": true,
      "emissiveFactor": [
        0,
        0,
        0
      ],
      "name": "sanitizerbottlev2__white_blinn",
      "pbrMetallicRoughness": {
        "baseColorFactor": [
          1,
          1,
          1,
          1
        ],
        "baseColorTexture": {
          "index": 1,
          "texCoord": 0
        },
        "metallicFactor": 0,
        "roughnessFactor": 0.15000000000000002
      }
    }
  ],
  "meshes": [
    {
      "name": "sanitizerbottle_v2_combined_mesh_result_sanitizerbottlev2_bottlelabel_blinn_0",
      "primitives": [
        {
          "attributes": {
            "NORMAL": 1,
            "POSITION": 0,
            "TANGENT": 2,
            "TEXCOORD_0": 3
          },
          "indices": 4,
          "material": 0,
          "mode": 4
        }
      ]
    },
    {
      "name": "sanitizerbottle_v2_combined_mesh_result_sanitizerbottlev2_green_blinn_0",
      "primitives": [
        {
          "attributes": {
            "NORMAL": 6,
            "POSITION": 5,
            "TANGENT": 7
          },
          "indices": 8,
          "material": 1,
          "mode": 4
        }
      ]
    },
    {
      "name": "sanitizerbottle_v2_combined_mesh_result_sanitizerbottlev2__white_blinn_0",
      "primitives": [
        {
          "attributes": {
            "NORMAL": 10,
            "POSITION": 9,
            "TANGENT": 11,
            "TEXCOORD_0": 12
          },
          "indices": 13,
          "material": 2,
          "mode": 4
        }
      ]
    }
  ],
  "nodes": [
    {
      "children": [
        1
      ],
      "name": "RootNode (gltf orientation matrix)",
      "rotation": [
        -0.70710678118654746,
        -0,
        -0,
        0.70710678118654757
      ]
    },
    {
      "children": [
        2
      ],
      "name": "RootNode (model correction matrix)"
    },
    {
      "children": [
        3
      ],
      "matrix": [
        1,
        0,
        0,
        0,
        0,
        0,
        1,
        0,
        0,
        -1,
        0,
        0,
        0,
        0,
        0,
        1
      ],
      "name": "b263d9ab8fc8440f8c4bb095d22ceaaa.fbx"
    },
    {
      "children": [
        4
      ],
      "name": "RootNode"
    },
    {
      "children": [
        5,
        6,
        7
      ],
      "name": "sanitizerbottle_v2_combined_mesh_result"
    },
    {
      "mesh": 0,
      "name": "sanitizerbottle_v2_combined_mesh_result_sanitizerbottlev2_bottlelabel_blinn_0"
    },
    {
      "mesh": 1,
      "name": "sanitizerbottle_v2_combined_mesh_result_sanitizerbottlev2_green_blinn_0"
    },
    {
      "mesh": 2,
      "name": "sanitizerbottle_v2_combined_mesh_result_sanitizerbottlev2__white_blinn_0"
    }
  ],
  "samplers": [
    {
      "magFilter": 9729,
      "minFilter": 9987,
      "wrapS": 10497,
      "wrapT": 10497
    }
  ],
  "scene": 0,
  "scenes": [
    {
      "name": "OSG_Scene",
      "nodes": [
        0
      ]
    }
  ],
  "textures": [
    {
      "sampler": 0,
      "source": 0
    },
    {
      "sampler": 0,
      "source": 1
    }
  ]
}

