{
  "accessors": [
    {
      "bufferView": 2,
      "componentType": 5126,
      "count": 1620,
      "max": [
        17.786231994628906,
        52.157051086425781,
        -4.0955085754394531
      ],
      "min": [
        -17.786224365234375,
        -0.055064558982849121,
        -30.017545700073242
      ],
      "type": "VEC3"
    },
    {
      "bufferView": 2,
      "byteOffset": 19440,
      "componentType": 5126,
      "count": 1620,
      "max": [
        1,
        1,
        1
      ],
      "min": [
        -1,
        -1,
        -1
      ],
      "type": "VEC3"
    },
    {
      "bufferView": 3,
      "componentType": 5126,
      "count": 1620,
      "max": [
        1,
        1,
        1,
        1
      ],
      "min": [
        -1,
        -0.99999994039535522,
        -1,
        1
      ],
      "type": "VEC4"
    },
    {
      "bufferView": 1,
      "componentType": 5126,
      "count": 1620,
      "max": [
        0.98679906129837036,
        0.97723627090454102
      ],
      "min": [
        0.01631850004196167,
        0.011436581611633301
      ],
      "type": "VEC2"
    },
    {
      "bufferView": 0,
      "componentType": 5125,
      "count": 4380,
      "max": [
        1619
      ],
      "min": [
        0
      ],
      "type": "SCALAR"
    },
    {
      "bufferView": 2,
      "byteOffset": 38880,
      "componentType": 5126,
      "count": 273,
      "max": [
        15.217825889587402,
        77.3890380859375,
        -8.24237060546875
      ],
      "min": [
        -15.217803001403809,
        28.750482559204102,
        -22.631275177001953
      ],
      "type": "VEC3"
    },
    {
      "bufferView": 2,
      "byteOffset": 42156,
      "componentType": 5126,
      "count": 273,
      "max": [
        1,
        1,
        1
      ],
      "min": [
        -1,
        -1,
        -1
      ],
      "type": "VEC3"
    },
    {
      "bufferView": 3,
      "byteOffset": 25920,
      "componentType": 5126,
      "count": 273,
      "max": [
        0.99999797344207764,
        0.99999886751174927,
        0.99999940395355225,
        1
      ],
      "min": [
        -0.95105624198913574,
        -0.99999403953552246,
        -0.99999934434890747,
        1
      ],
      "type": "VEC4"
    },
    {
      "bufferView": 1,
      "byteOffset": 12960,
      "componentType": 5126,
      "count": 273,
      "max": [
        0.46400105953216553,
        0.60490167140960693
      ],
      "min": [
        0.021675169467926025,
        0.19076216220855713
      ],
      "type": "VEC2"
    },
    {
      "bufferView": 0,
      "byteOffset": 17520,
      "componentType": 5125,
      "count": 798,
      "max": [
        272
      ],
      "min": [
        0
      ],
      "type": "SCALAR"
    },
    {
      "bufferView": 2,
      "byteOffset": 45432,
      "componentType": 5126,
      "count": 166,
      "max": [
        15.217825889587402,
        77.3890380859375,
        27.747184753417969
      ],
      "min": [
        -15.217803001403809,
        73.1456298828125,
        -8.9899511337280273
      ],
      "type": "VEC3"
    },
    {
      "bufferView": 2,
      "byteOffset": 47424,
      "componentType": 5126,
      "count": 166,
      "max": [
        0.99996179342269897,
        1,
        0.99935251474380493
      ],
      "min": [
        -0.99996179342269897,
        -1,
        -1
      ],
      "type": "VEC3"
    },
    {
      "bufferView": 3,
      "byteOffset": 30288,
      "componentType": 5126,
      "count": 166,
      "max": [
        0.99999940395355225,
        0.99997109174728394,
        0.99992215633392334,
        1
      ],
      "min": [
        -0.99999982118606567,
        -0.9999956488609314,
        -0.956634521484375,
        1
      ],
      "type": "VEC4"
    },
    {
      "bufferView": 1,
      "byteOffset": 15144,
      "componentType": 5126,
      "count": 166,
      "max": [
        0.91846442222595215,
        0.9863353967666626
      ],
      "min": [
        0.026479780673980713,
        0.36752867698669434
      ],
      "type": "VEC2"
    },
    {
      "bufferView": 0,
      "byteOffset": 20712,
      "componentType": 5125,
      "count": 558,
      "max": [
        165
      ],
      "min": [
        0
      ],
      "type": "SCALAR"
    },
    {
      "bufferView": 2,
      "byteOffset": 49416,
      "componentType": 5126,
      "count": 1230,
      "max": [
        17.786231994628906,
        9.1341342926025391,
        30.017545700073242
      ],
      "min": [
        -17.786224365234375,
        -0.055064558982849121,
        -4.6724853515625
      ],
      "type": "VEC3"
    },
    {
      "bufferView": 2,
      "byteOffset": 64176,
      "componentType": 5126,
      "count": 1230,
      "max": [
        1,
        1,
        1
      ],
      "min": [
        -1,
        -1,
        -1
      ],
      "type": "VEC3"
    },
    {
      "bufferView": 3,
      "byteOffset": 32944,
      "componentType": 5126,
      "count": 1230,
      "max": [
        1,
        0.9999995231628418,
        1,
        1
      ],
      "min": [
        -1,
        -0.9999995231628418,
        -1,
        1
      ],
      "type": "VEC4"
    },
    {
      "bufferView": 1,
      "byteOffset": 16472,
      "componentType": 5126,
      "count": 1230,
      "max": [
        0.98126471042633057,
        0.89078128337860107
      ],
      "min": [
        0.62723827362060547,
        0.021495223045349121
      ],
      "type": "VEC2"
    },
    {
      "bufferView": 0,
      "byteOffset": 22944,
      "componentType": 5125,
      "count": 3372,
      "max": [
        1229
      ],
      "min": [
        0
      ],
      "type": "SCALAR"
    }
  ],
  "asset": {
    "extras": {
      "author": "Ethan Cragun (https://sketchfab.com/EDIIIC)",
      "license": "CC-BY-4.0 (http://creativecommons.org/licenses/by/4.0/)",
      "source": "https://sketchfab.com/3d-models/adjustable-bedside-table-e3ef6fd54af440efa31984214dd6f11d",
      "title": "Adjustable Bedside Table"
    },
    "generator": "Sketchfab-8.20.0",
    "version": "2.0"
  },
  "bufferViews": [
    {
      "buffer": 0,
      "byteLength": 36432,
      "byteOffset": 0,
      "name": "floatBufferViews",
      "target": 34963
    },
    {
      "buffer": 0,
      "byteLength": 26312,
      "byteOffset": 36432,
      "byteStride": 8,
      "name": "floatBufferViews",
      "target": 34962
    },
    {
      "buffer": 0,
      "byteLength": 78936,
      "byteOffset": 62744,
      "byteStride": 12,
      "name": "floatBufferViews",
      "target": 34962
    },
    {
      "buffer": 0,
      "byteLength": 52624,
      "byteOffset": 141680,
      "byteStride": 16,
      "name": "floatBufferViews",
      "target": 34962
    }
  ],
  "buffers": [
    {
      "byteLength": 194304,
      "uri": "scene.bin"
    }
  ],
  "images": [
    {
      "uri": "textures/BedTable_baseColor.jpeg"
    },
    {
      "uri": "textures/BedTable_metallicRoughness.png"
    },
    {
      "uri": "textures/BedTable_normal.png"
    }
  ],
  "materials": [
    {
      "doubleSided": true,
      "name": "BedTable",
      "normalTexture": {
        "index": 2,
        "scale": 1,
        "texCoord": 0
      },
      "occlusionTexture": {
        "index": 1,
        "strength": 1,
        "texCoord": 0
      },
      "pbrMetallicRoughness": {
        "baseColorFactor": [
          1,
          1,
          1,
          1
        ],
        "baseColorTexture": {
          "index": 0,
          "texCoord": 0
        },
        "metallicFactor": 1,
        "metallicRoughnessTexture": {
          "index": 1,
          "texCoord": 0
        },
        "roughnessFactor": 1
      }
    }
  ],
  "meshes": [
    {
      "name": "Base_BedTable_0",
      "primitives": [
        {
          "attributes": {
            "NORMAL": 1,
            "POSITION": 0,
            "TANGENT": 2,
            "TEXCOORD_0": 3
          },
          "indices": 4,
          "material": 0,
          "mode": 4
        }
      ]
    },
    {
      "name": "Upper_BedTable_0",
      "primitives": [
        {
          "attributes": {
            "NORMAL": 6,
            "POSITION": 5,
            "TANGENT": 7,
            "TEXCOORD_0": 8
          },
          "indices": 9,
          "material": 0,
          "mode": 4
        }
      ]
    },
    {
      "name": "Table_BedTable_0",
      "primitives": [
        {
          "attributes": {
            "NORMAL": 11,
            "POSITION": 10,
            "TANGENT": 12,
            "TEXCOORD_0": 13
          },
          "indices": 14,
          "material": 0,
          "mode": 4
        }
      ]
    },
    {
      "name": "Base_Extender_BedTable_0",
      "primitives": [
        {
          "attributes": {
            "NORMAL": 16,
            "POSITION": 15,
            "TANGENT": 17,
            "TEXCOORD_0": 18
          },
          "indices": 19,
          "material": 0,
          "mode": 4
        }
      ]
    }
  ],
  "nodes": [
    {
      "children": [
        1
      ],
      "name": "RootNode (gltf orientation matrix)",
      "rotation": [
        -0.70710678118654746,
        -0,
        -0,
        0.70710678118654757
      ]
    },
    {
      "children": [
        2
      ],
      "matrix": [
        1.4857970476150513,
        0,
        0,
        0,
        0,
        1.4857970476150513,
        0,
        0,
        0,
        0,
        1.4857970476150513,
        0,
        0,
        0,
        0,
        1
      ],
      "name": "RootNode (model correction matrix)"
    },
    {
      "children": [
        3
      ],
      "matrix": [
        1,
        0,
        0,
        0,
        0,
        0,
        1,
        0,
        0,
        -1,
        0,
        0,
        0,
        0,
        0,
        1
      ],
      "name": "54c7dbbb397a4d46aaff2825b78b07c6.fbx"
    },
    {
      "children": [
        4
      ],
      "name": "RootNode"
    },
    {
      "children": [
        5
      ],
      "matrix": [
        0.032808400690555573,
        0,
        0,
        0,
        0,
        0.032808400690555573,
        0,
        0,
        0,
        0,
        0.032808400690555573,
        0,
        0,
        0,
        0,
        1
      ],
      "name": "Hosp_BedsideTable"
    },
    {
      "children": [
        6,
        7,
        11
      ],
      "name": "Base"
    },
    {
      "mesh": 0,
      "name": "Base_BedTable_0"
    },
    {
      "children": [
        8,
        9
      ],
      "name": "Upper"
    },
    {
      "mesh": 1,
      "name": "Upper_BedTable_0"
    },
    {
      "children": [
        10
      ],
      "name": "Table"
    },
    {
      "mesh": 2,
      "name": "Table_BedTable_0"
    },
    {
      "children": [
        12
      ],
      "name": "Base_Extender"
    },
    {
      "mesh": 3,
      "name": "Base_Extender_BedTable_0"
    }
  ],
  "samplers": [
    {
      "magFilter": 9729,
      "minFilter": 9987,
      "wrapS": 10497,
      "wrapT": 10497
    }
  ],
  "scene": 0,
  "scenes": [
    {
      "name": "OSG_Scene",
      "nodes": [
        0
      ]
    }
  ],
  "textures": [
    {
      "sampler": 0,
      "source": 0
    },
    {
      "sampler": 0,
      "source": 1
    },
    {
      "sampler": 0,
      "source": 2
    }
  ]
}

